<svg width="24" height="24" viewBox="0 0 24 24" fill="none" xmlns="http://www.w3.org/2000/svg">
<rect x="0.5" y="0.5" width="23" height="23" rx="3.5" fill="white" stroke="#2B87EC"/>
<g clip-path="url(#clip0_2247_66625)">
<path d="M8.66732 6.66668V5.33334H15.334V6.66668H18.6673V8.00001H17.334V18C17.334 18.1768 17.2637 18.3464 17.1387 18.4714C17.0137 18.5964 16.8441 18.6667 16.6673 18.6667H7.33398C7.15717 18.6667 6.9876 18.5964 6.86258 18.4714C6.73756 18.3464 6.66732 18.1768 6.66732 18V8.00001H5.33398V6.66668H8.66732ZM8.00065 8.00001V17.3333H16.0007V8.00001H8.00065ZM10.0007 10H11.334V15.3333H10.0007V10ZM12.6673 10H14.0007V15.3333H12.6673V10Z" fill="#2B87EC"/>
</g>
<defs>
<clipPath id="clip0_2247_66625">
<rect width="16" height="16" fill="white" transform="translate(4 4)"/>
</clipPath>
</defs>
</svg>
