<svg width="24" height="24" viewBox="0 0 24 24" fill="none" xmlns="http://www.w3.org/2000/svg">
<rect x="0.5" y="0.5" width="23" height="23" rx="3.5" fill="white" stroke="#E9E9E9"/>
<g clip-path="url(#clip0_2379_16370)">
<path d="M8.66536 6.66659V5.33325H15.332V6.66659H18.6654V7.99992H17.332V17.9999C17.332 18.1767 17.2618 18.3463 17.1368 18.4713C17.0117 18.5963 16.8422 18.6666 16.6654 18.6666H7.33203C7.15522 18.6666 6.98565 18.5963 6.86063 18.4713C6.7356 18.3463 6.66536 18.1767 6.66536 17.9999V7.99992H5.33203V6.66659H8.66536ZM7.9987 7.99992V17.3333H15.9987V7.99992H7.9987ZM9.9987 9.99992H11.332V15.3333H9.9987V9.99992ZM12.6654 9.99992H13.9987V15.3333H12.6654V9.99992Z" fill="#555555"/>
</g>
<defs>
<clipPath id="clip0_2379_16370">
<rect width="16" height="16" fill="white" transform="translate(4 4)"/>
</clipPath>
</defs>
</svg>
